/* XPM */
static char * grass_xpm[] = {
"72 72 3 1",
" 	c None",
".	c #AFDE54",
"+	c #78B323",
"                                                                        ",
"                                                                        ",
"                                                                        ",
"                                                                        ",
"                                                                        ",
"                                                                        ",
"                                                                        ",
"                                                                        ",
"                                                                        ",
"                                                                        ",
"                                                                        ",
"                                                                        ",
"                                                                        ",
"                                                                        ",
"                                                                        ",
"                                                                        ",
"                                                                        ",
"                                                                        ",
"                                                                        ",
"                                                                        ",
"                                                                        ",
"                                                                        ",
"                                                                        ",
"                                                                        ",
"                                                                        ",
"                                                                        ",
"                                                                        ",
"                                                                        ",
"                                                                        ",
"                                                                        ",
"                                                                        ",
"                                                                        ",
"                                                                        ",
"                                   ..                                   ",
"                               ..........                               ",
"                           ..................                           ",
"                        .........+..............                        ",
"                    .............+..................                    ",
"                 ................+....+................                 ",
"             .............++..........+....++..............             ",
"         .............+...++..........+....++..................         ",
"     ................++........+......+....+...+...+...............     ",
"  ...................+.........+...............+...++......+..........  ",
".............+....+......+.....+.....+.....................+....+.......",
"....+........++...+......++....+......+................+........+.......",
"....+...+.........+.......+................+....+......+................",
"....+...+.................+.......+.............++.....+...+.......+....",
"........+.........................+..............+.........+.+.....+....",
"................+....+.......+....+........................+.++....+....",
"................++...+........+....................+.....+++..+.........",
"...+........+....+............+..........+....+....+.....++.....+.....+.",
"...+........++...........................+....+....+...+..+.....+.....+.",
"...+...+.....+...........++........+.....+.............++.......+..+....",
"..+....+.....+....++......+...+....+....................+..........+....",
"..+....+........+..+......+...+.....+..........++.......+....+.....++...",
"......++........+..+.........++...+.............+............+..........",
"...................+..............+................+.........+.+........",
"......................................+............+...........+........",
"....+.....+...................+.......+...+..+.....+...............+....",
"....+.....+...................+.......+...+...+....+.......+.......+....",
"..........+..++...+...+...+...+...........+...+.......++...+............",
"..............+...+...+...+...............+............+...++...........",
" .................+.......+.........++.................+............... ",
"    ..............+..................+..........++..................    ",
"       .................+........+...+......+....+...............       ",
"           .............+....+...+.......+..+....+...........           ",
"               .........+....+...+.......+..+............               ",
"                   ..............+.......+...........                   ",
"                      ............................                      ",
"                          ....................                          ",
"                             ..............                             ",
"                                 ......                                 "};
