/* XPM */
static char * hills_xpm[] = {
"72 72 5 1",
" 	c None",
".	c #AFDE54",
"+	c #78B323",
"@	c #000000",
"#	c #A4A059",
"                                                                        ",
"                                                                        ",
"                                                                        ",
"                                                                        ",
"                                                                        ",
"                                                                        ",
"                                                                        ",
"                                                                        ",
"                                                                        ",
"                                                                        ",
"                                                                        ",
"                                                                        ",
"                                                                        ",
"                                                                        ",
"                                                                        ",
"                                                                        ",
"                                                                        ",
"                                                                        ",
"                                                                        ",
"                                                                        ",
"                                                                        ",
"                                                                        ",
"                                                                        ",
"                                                                        ",
"                                                                        ",
"                                                                        ",
"                                                                        ",
"                                                                        ",
"                                                                        ",
"                                                                        ",
"                                                                        ",
"                                                                        ",
"                                                                        ",
"                                   ..                                   ",
"                               ..........                               ",
"                           ..................                           ",
"                        .........+..............                        ",
"                    .............+......@@@.........                    ",
"                 ................+...@@@###@...........                 ",
"             .............++.......@@@######@@.............             ",
"         .............+.@@@@@@........+....++..................         ",
"     ................++@@####.@@@@@@@@@@...+...+...+...............     ",
"  ...................+........@#######.@.......+...++......+..........  ",
".............+....+......+....@+.....###@@..@@@@@@@........+.@@@@.......",
"....@@@@@....@@@@@@@@@...++..@@@@.....+#..@@@.####.....+....@###@@......",
"...@####@@.@@########@@@..@@@####@@....##.@@###.+.@@@@@@@..@@#####@.....",
"..@@#..#+.@@####....##.@@@####..##@.....##.##...+@@######@@+.....#@@....",
"........+@@.######....#@@##......#+@............@@#.....##@@.+.....+....",
"........@@.###..+....+.......+....+.............@##.....####@@+....+....",
"......@@@@@@@@@.++...+.@@@@@@@+.............@@@@@#.+.....+###@#.........",
"...+..@#####+.@@.+...@@@.#####@..........+....@@##.+.....++...@@@@@@..+.",
"...+.......####@@.@@.@.######.@@..@@@@...+....+.@..+...+..+..@@.+###@@+.",
"...+...+....@@@@@##@@@.#.++..#.@@@.+.....+.......@@....++..@@.####.##@..",
"..+....+....@#######.@...@@@..@@@@.+.....@@@@@@@@@@.....+.@@#########...",
"..+.@@@@@.......+..##@@@@.+@@.+.....+...@@########@.....+@@.##.....++...",
"..@@#.###@......+..+.@.......++...+.....@##.####+#@@.....@###+.@@@@.....",
"..@.###.#.@........+@@.........@@@@@@...@####......@........@@@@..@@....",
"........###@.......@@........@@@####.@@.@..........+.......@@########@..",
"....+.....#@@...............@@###..##.@@..+..+.....+...............+....",
"....+.....+............@@@@.@.#......#+@..+...+....@@@@....+.......+....",
"..........+..++...+@@@@@##+@@.+......###@.+...+.@@@@..+@...+............",
"..............+...@######.+.@...........@@+....@#######+@..++...........",
" .................+.......+@@.......@@@@@@@@@.@@##....##.@@............ ",
"    ..............+...............@@@+#####.@@@.++.....##...........    ",
"       .................+........+...+....##+.@@@+...............       ",
"           .............+....+...+.......+..+....+...........           ",
"               .........+....+...+.......+..+............               ",
"                   ..............+.......+...........                   ",
"                      ............................                      ",
"                          ....................                          ",
"                             ..............                             ",
"                                 ......                                 "};
