/* XPM */
static char * mounteen_xpm[] = {
"72 72 5 1",
" 	c None",
".	c #000000",
"+	c #A4A059",
"@	c #AFDE54",
"#	c #78B323",
"                                                                        ",
"                                                                        ",
"                                                                        ",
"                                                                        ",
"                                                                        ",
"                                                                        ",
"                                                                        ",
"                                                                        ",
"                                                                        ",
"                                                                        ",
"                                                                        ",
"                                                                        ",
"                                                                        ",
"                                                                        ",
"                                                                        ",
"                                                                        ",
"                                                                        ",
"                                                                        ",
"                                                                        ",
"                                                                        ",
"                                                                        ",
"                                                                        ",
"                                                                        ",
"                                                                        ",
"                                                                        ",
"                                                                        ",
"                                                                        ",
"                                                                        ",
"                                                                        ",
"                                      ......                            ",
"                                    ..+++++..                           ",
"                                   .+++++++++.                          ",
"                   ........        .++++++++++.                         ",
"                 ...++++++...     ..++++++++++..                        ",
"                 ..+++++++++.. @@@.++++++++++++.                        ",
"                ..++++++.++++.++@..++++.++++++++.                       ",
"               ..+++++++.++++++...+++++.+++.+++++.                      ",
"               ..++++++++.++++++..+++++.+....+++++.@                    ",
"               .+++++++++..+++++.++++++.+++..@+++++.@@@                 ",
"             @..++++++++++.+++++..+..+..+++++.+@+++.@@@@@@@             ",
"         @@@@@.+++++.+++.+....@.++++++.++.++++.++++++@@@@....@@         ",
"     @@@@@@@@@.+++++.++..++++++++++.....+.+++++.+@@#......@@.@@@@@@     ",
"  @@@@@@@@@@@..+++++.#@++++++++.+++++++++.+++++..@@##..@@@@#@.@@@@@@@@  ",
"@@@@@@@@@@@@@.+++++++..+++++++++.+@++++++.+++......@.@.@@@@#@....@@@@@@@",
"@@@@.....@@....+++++.++++++++++++.+++++++..+.+++.+@@.@@#@@@@.++...@@@@@@",
"@@@.++++..@..+++++++.+++++.++++++.+@@@@+++.++++@#@.......@@..+++.+.@@@@@",
"@@..+@@+#@..++++@@.++++++.++++++++++@+++++@++++@#...+++++..#@@@@....@@@@",
"@@@@@@@@#...+++++.++++++++++++++++.+++@@++@@@@@@..++++++++..@#@@@.@#@@@@",
"@@@@@@@@..@+++@@#+++++++@+@@++@+++.++++@@++@@@@@.++@++++++++..#@@@.#@@@@",
"@@@@@@.........@..+@+++++...++#++++.++++@@@@.....+++@++++#+++.+@@@.@@@@@",
"@@@#@@.+++++#@...+@++++++++++++++++.@+@@@#@@@++++++++++++++++@......@@#@",
"@@@#@@@@@@@++++..@..+.@++++++@++++++..+@@#@@@++..++++++.++++@..@#++...#@",
"@@@#@@@#@@@@.....++...@+@##@@+@...@#+.+@@#+@.++@@+++++@+.+@.++++++@+..@@",
"@@#@@@@#@@@@.++.++++@.@@@...@@....@#@.@@@++.....+++++++++.++++++++++..@@",
"@@#@.....@@@@@@.#@@++....@#..@#@@@@@#@@@...++.++++.++++++..@+++@@@@##.@@",
"@@..+@+++.@@@@@@#@@#@.@@@@@@@##@@@#@@@@@+++@+.++#+.++@+++++.++@....@@@@@",
"@@.@+++@+@.@@@@@@@@#..@@@@@@@@@......@@..++++.@@@@@+@@@@@@++....@@..@@@@",
"@@@@@@@@+++.@@@@@@@..@@@@@@@@...++++@....@@@@@@@@@++@@@@@@@..++++++++.@@",
"@@@@#@@@@@+..@@@@@@@@@@@@@@@..+++@@++@..@@#@@#@@@@@#@@@@@@@@@.@@@@@#@@@@",
"@@@@#@@@@@#@@@@@@@@@@@@....@.@+@@@@@@+#.@@#@@@#@@@@....@@@@#@@@@@@@#@@@@",
"@@@@@@@@@@#@@##@@@#.....++#..@#@@@@@@+++.@#@@@#@....@@#.@@@#@@@@@@@@@@@@",
"@@@@@@@@@@@@@@#@@@.++++++@#@.@@@@@@@@@@@..#@@@@.+++++++#.@@##@@@@@@@@@@@",
" @@@@@@@@@@@@@@@@@#@@@@@@@#..@@@@@@@.........@..++@@@@++@..@@@@@@@@@@@@ ",
"    @@@@@@@@@@@@@@#@@@@@@@@@@@@@@@...#+++++@...@##@@@@@++@@@@@@@@@@@    ",
"       @@@@@@@@@@@@@@@@@#@@@@@@@@#@@@#@@@@++#@...#@@@@@@@@@@@@@@@       ",
"           @@@@@@@@@@@@@#@@@@#@@@#@@@@@@@#@@#@@@@#@@@@@@@@@@@           ",
"               @@@@@@@@@#@@@@#@@@#@@@@@@@#@@#@@@@@@@@@@@@               ",
"                   @@@@@@@@@@@@@@#@@@@@@@#@@@@@@@@@@@                   ",
"                      @@@@@@@@@@@@@@@@@@@@@@@@@@@@                      ",
"                          @@@@@@@@@@@@@@@@@@@@                          ",
"                             @@@@@@@@@@@@@@                             ",
"                                 @@@@@@                                 "};
