/* XPM */
static char * sel_xpm[] = {
"72 72 2 1",
" 	c None",
".	c #EF0000",
"                                                                        ",
"                                                                        ",
"                                                                        ",
"                                                                        ",
"                                                                        ",
"                                                                        ",
"                                                                        ",
"                                                                        ",
"                                                                        ",
"                                                                        ",
"                                                                        ",
"                                                                        ",
"                                                                        ",
"                                                                        ",
"                                                                        ",
"                                                                        ",
"                                                                        ",
"                                                                        ",
"                                                                        ",
"                                                                        ",
"                                                                        ",
"                                                                        ",
"                                                                        ",
"                                                                        ",
"                                                                        ",
"                                                                        ",
"                                                                        ",
"                                                                        ",
"                                                                        ",
"                                                                        ",
"                                                                        ",
"                                                                        ",
"                                                                        ",
"                                   ..                                   ",
"                               ....  ....                               ",
"                           ....          ....                           ",
"                        ...                  ...                        ",
"                    ....                        ....                    ",
"                 ...                                ...                 ",
"             ....                                      ....             ",
"         ....                                              ....         ",
"     ....                                                      ....     ",
"  ...                                                              ...  ",
" .                                                                    . ",
".                                                                      .",
".                                                                      .",
".                                                                      .",
".                                                                      .",
".                                                                      .",
".                                                                      .",
".                                                                      .",
".                                                                      .",
".                                                                      .",
".                                                                      .",
".                                                                      .",
".                                                                      .",
".                                                                      .",
".                                                                      .",
".                                                                      .",
".                                                                      .",
".                                                                      .",
" .                                                                    . ",
" ...                                                                ... ",
"    ...                                                          ...    ",
"       ....                                                  ....       ",
"           ....                                          ....           ",
"               ....                                  ....               ",
"                   ...                            ...                   ",
"                      ....                    ....                      ",
"                          ...              ...                          ",
"                             ....     .....                             ",
"                                 .....                                  "};
