/* XPM */
static char * sldr_xpm[] = {
"72 72 2 1",
" 	c None",
"#	c #0000FF",
"                                                                        ",
"                                                                        ",
"                                                                        ",
"                                                                        ",
"                                                                        ",
"                                                                        ",
"                                                                        ",
"                                                                        ",
"                                                                        ",
"                                                                        ",
"                                                                        ",
"                                                                        ",
"                                                                        ",
"                                                                        ",
"                                                                        ",
"                                                                        ",
"                                                                        ",
"                                                                        ",
"                                                                        ",
"                                                                        ",
"                 #                                                      ",
"                 #                                                      ",
"                 ##                                                     ",
"                 ###                                                    ",
"                 ###                                                    ",
"                 ##                                                     ",
"                  #               ##                                    ",
"                  #              ####                                   ",
"                  #              ####                                   ",
"                   #             ####                                   ",
"                   #             ####                                   ",
"                   #              ##                                    ",
"                    #              #                                    ",
"                    #              #                                    ",
"                    #             ###                                   ",
"                    #            #####                                  ",
"                     #          #######                                 ",
"                     #         #  #### #                                ",
"                     ##     ###   ####  #                               ",
"                     #######      ####   #                              ",
"                     ###          ####   #                              ",
"                      #           ####   ##                             ",
"                      #           ####    #                             ",
"                      #           ####   ###                            ",
"                       #          ####   ###                            ",
"                       #          #####                                 ",
"                       #          #####                                 ",
"                       #          #   #                                 ",
"                        #         #   #                                 ",
"                        #         #   #                                 ",
"                        #         #    #                                ",
"                         #        #    #                                ",
"                         #        #    #                                ",
"                         #       #     #                                ",
"                         #       #     #                                ",
"                         #       #     #                                ",
"                          #      #      #                               ",
"                          #      #      #                               ",
"                          #      #      #                               ",
"                          #   ####      ## ##                           ",
"                                                                        ",
"                                                                        ",
"                                                                        ",
"                                                                        ",
"                                                                        ",
"                                                                        ",
"                                                                        ",
"                                                                        ",
"                                                                        ",
"                                                                        ",
"                                                                        ",
"                                                                        "};
