/* XPM */
static char * tree_xpm[] = {
"72 72 5 1",
" 	c None",
".	c #AFDE54",
"+	c #000000",
"@	c #78B323",
"#	c #7E770C",
"                                                                        ",
"                                                                        ",
"                                                                        ",
"                                                                        ",
"                                                                        ",
"                                                                        ",
"                                                                        ",
"                                                                        ",
"                                                                        ",
"                                                                        ",
"                                                                        ",
"                                                                        ",
"                                                                        ",
"                                                                        ",
"                                                                        ",
"                                                                        ",
"                                                                        ",
"                                                                        ",
"                                                                        ",
"                                                                        ",
"                                                                        ",
"                                                                        ",
"                                                                        ",
"                                                                        ",
"                                                                        ",
"                                                                        ",
"                                                                        ",
"                                                                        ",
"                                                                        ",
"                                                                        ",
"                                                                        ",
"                                                                        ",
"                                                                        ",
"                                   ..                                   ",
"                               ..+++@@@..                               ",
"                           ......+@@+++......                           ",
"                        ........+@@@@@++........                        ",
"                    ............+@@@@@@+............                    ",
"                 .......++++@@@.+@..#@@+..++++.........                 ",
"             ...........+@@++@@..+@@#@@..++@@@++...........             ",
"         .............@..@@@@+...+@@#@+.+@@@@@@+...............         ",
"     ...@@@..........@@.+@@@@+.@..++#++.+@@@@@@++@.@...............     ",
"  ....++++.@.........@..++@@@@@@....#...+.@@@.@@@+.@@......@..........  ",
".....+@@@@@+@@....@......+@@@+@@....#@..++@@#.@@.+.........@....@.......",
"....@+@@@@@+@@@...@.....@@+@@+.@....#.@..@@@#@@+.....++++.......@.......",
"....@+@@@@@+......@.++...@+@@............+@@#@@.@...+@@@@+@@@....#......",
"....@+@.#@@+........@@....@#++....@......+.@@@@+@@..+@@@.++@@....#.@....",
"....@@@@#.@+.......@@@+....#......@.......+@#+...@.+@.@#@@@@.@...#.@....",
".....+@@#.@@...+@+++@@+....#.@....@.........#......+@@.@@@++.@@..#.@....",
".....++@#@++...+@@@.@++....#..@.....++......#......@@.@@@@@+..@..#......",
"...@.@@++++.@...@@@@.+@.......@....+@@+..@..#.@....@@@@@@@@+....@#....@.",
"...@....#...@@..+@@#.++............+@@@++@....@....+.@@@@.@+....@#....@.",
"...@...@##...@..+@@#@@+..@@........+@@@@.@.........+@@#@@+++....@..@....",
"..@....@.#...@...+@@#@+...@...@...+@@@@@@+.........+@@@@@+.........@....",
"..@....@........@@@@@@@+..@...@...+@@#@@@+.....@@..++.#++....@.....@@...",
"......@@........@+.@@.++.....@@...+@.@@@++......@.....+......@..........",
".................+++@++...........++@@@+...........@.+#......@.@........",
"....................#..............@@#@+...........@.+#+.......@........",
"....@.....@.........#.........@......#@+..@..@.....@..++...........@....",
"....@.....@.........#.........@......#@...@...@....@.......@.......@....",
"..........@..@@...@...@...@...@......#....@...@.......@@...@............",
"..............@...@...@...@..........#....@............@...@@...........",
" .................@.......@.........@##................@............... ",
"    ..............@..................@#.........@@..................    ",
"       .................@........@...@......@....@...............       ",
"           .............@....@...@.......@..@....@...........           ",
"               .........@....@...@.......@..@............               ",
"                   ..............@.......@...........                   ",
"                      ............................                      ",
"                          ....................                          ",
"                             ..............                             ",
"                                 ......                                 "};
