/* XPM */
static char * water_xpm[] = {
"72 72 3 1",
" 	c None",
".	c #5E6CF3",
"+	c #3747E5",
"                                                                        ",
"                                                                        ",
"                                                                        ",
"                                                                        ",
"                                                                        ",
"                                                                        ",
"                                                                        ",
"                                                                        ",
"                                                                        ",
"                                                                        ",
"                                                                        ",
"                                                                        ",
"                                                                        ",
"                                                                        ",
"                                                                        ",
"                                                                        ",
"                                                                        ",
"                                                                        ",
"                                                                        ",
"                                                                        ",
"                                                                        ",
"                                                                        ",
"                                                                        ",
"                                                                        ",
"                                                                        ",
"                                                                        ",
"                                                                        ",
"                                                                        ",
"                                                                        ",
"                                                                        ",
"                                                                        ",
"                                                                        ",
"                                                                        ",
"                                   ..                                   ",
"                               ..........                               ",
"                           ..................                           ",
"                        ........................                        ",
"                    ................................                    ",
"                 ......................................                 ",
"             ..............................................             ",
"         ......................................................         ",
"     ...............................+++++..........................     ",
"  ......................+++++.........................................  ",
"........................................................................",
"........................................................................",
".............................................+++++......................",
"........................................................................",
"..........+++++............................................+++++........",
"........................................................................",
".................................+++++..................................",
".......................+++++............................................",
"..................................................+++++.................",
"........................................................................",
".........................................................+++++..........",
".......+++++.............................+++++..........................",
"........................................................................",
"............................+++++.......................................",
"........................................................................",
"................+++++..........................................+++++....",
"........................................................................",
"....................................+++++..........+++++................",
"........................................................................",
" ...................................................................... ",
"    .......................+++++....................................    ",
"       ................................+++++.....................       ",
"           ..................................................           ",
"               ..........................................               ",
"                   ..................................                   ",
"                      ............................                      ",
"                          ....................                          ",
"                             ..............                             ",
"                                 ......                                 "};
